<svg width="375" height="77" viewBox="0 0 375 77" fill="none" xmlns="http://www.w3.org/2000/svg">
<path d="M22.8885 31.8883V34.3939H12.9161V31.8883H22.8885ZM15.8226 27.2779H18.7792V45.6191C18.7792 46.4543 18.9003 47.0807 19.1425 47.4983C19.3931 47.9076 19.7105 48.1832 20.0947 48.3252C20.4872 48.4588 20.9007 48.5256 21.335 48.5256C21.6607 48.5256 21.928 48.5089 22.1368 48.4755C22.3456 48.4338 22.5126 48.4004 22.6379 48.3753L23.2392 51.0313C23.0388 51.1064 22.759 51.1816 22.3999 51.2568C22.0407 51.3403 21.5855 51.3821 21.0343 51.3821C20.1991 51.3821 19.3806 51.2025 18.5788 50.8433C17.7853 50.4842 17.1255 49.9371 16.5993 49.2022C16.0815 48.4672 15.8226 47.5401 15.8226 46.4209V27.2779ZM30.706 39.5555V51.1315H27.7494V25.4739H30.706V34.895H30.9566C31.4076 33.9011 32.0841 33.1119 32.9861 32.5272C33.8965 31.9342 35.1076 31.6377 36.6193 31.6377C37.9306 31.6377 39.079 31.9008 40.0645 32.427C41.0501 32.9448 41.8143 33.7424 42.3572 34.8199C42.9084 35.8889 43.184 37.2503 43.184 38.904V51.1315H40.2274V39.1045C40.2274 37.576 39.8307 36.3942 39.0372 35.559C38.2521 34.7155 37.1622 34.2937 35.7674 34.2937C34.7985 34.2937 33.9299 34.4983 33.1615 34.9076C32.4015 35.3168 31.8001 35.914 31.3575 36.6991C30.9232 37.4842 30.706 38.4363 30.706 39.5555ZM56.6612 51.5324C54.807 51.5324 53.2076 51.1231 51.8629 50.3046C50.5266 49.4778 49.4951 48.3252 48.7684 46.8469C48.0502 45.3602 47.691 43.6313 47.691 41.6602C47.691 39.6891 48.0502 37.9519 48.7684 36.4485C49.4951 34.9368 50.5057 33.7591 51.8002 32.9156C53.1032 32.0637 54.6233 31.6377 56.3605 31.6377C57.3627 31.6377 58.3525 31.8048 59.3297 32.1388C60.3069 32.4729 61.1963 33.0158 61.9981 33.7675C62.7999 34.5108 63.4389 35.4964 63.915 36.7241C64.391 37.9519 64.6291 39.4636 64.6291 41.2593V42.5121H49.7957V39.9564H61.6223C61.6223 38.8706 61.4052 37.9018 60.9708 37.0499C60.5449 36.198 59.9352 35.5256 59.1417 35.0328C58.3566 34.5401 57.4296 34.2937 56.3605 34.2937C55.1828 34.2937 54.1639 34.586 53.3036 35.1706C52.4517 35.7469 51.7961 36.4986 51.3367 37.4257C50.8773 38.3528 50.6477 39.3467 50.6477 40.4074V42.1112C50.6477 43.5645 50.8982 44.7964 51.3993 45.807C51.9088 46.8093 52.6146 47.5735 53.5166 48.0997C54.4186 48.6175 55.4668 48.8764 56.6612 48.8764C57.4379 48.8764 58.1395 48.7678 58.7659 48.5507C59.4006 48.3252 59.9477 47.9911 60.4071 47.5484C60.8664 47.0974 61.2214 46.5378 61.472 45.8697L64.3284 46.6715C64.0277 47.6403 63.5224 48.4922 62.8125 49.2272C62.1026 49.9538 61.2256 50.5218 60.1816 50.931C59.1376 51.3319 57.9641 51.5324 56.6612 51.5324Z" fill="black" style="fill:black;fill-opacity:1;"/>
<path d="M221.16 16.0403H250.56V51.3195H221.16V16.0403Z" fill="white" style="fill:white;fill-opacity:1;"/>
<path d="M229.691 64.5492C226.285 64.5492 223.334 63.906 220.837 62.6196C218.34 61.3079 216.398 59.5548 215.01 57.3603C213.648 55.1659 212.967 52.757 212.967 50.1337V27.1293C212.967 24.4808 213.648 22.0719 215.01 19.9026C216.398 17.7081 218.34 15.9677 220.837 14.6813C223.334 13.3696 226.285 12.7138 229.691 12.7138H241.344C244.749 12.7138 247.701 13.3696 250.198 14.6813C252.72 15.9677 254.662 17.7081 256.025 19.9026C257.387 22.0719 258.068 24.4808 258.068 27.1293V50.1337C258.068 52.757 257.387 55.1659 256.025 57.3603C254.662 59.5548 252.72 61.3079 250.198 62.6196C247.701 63.906 244.749 64.5492 241.344 64.5492H229.691ZM228.139 47.4095H232.188V33.1074H244.825V29.1346H232.188V20.1296H246.982V16.119H228.139V47.4095Z" fill="#7E1891" style="fill:#7E1891;fill:color(display-p3 0.4941 0.0941 0.5686);fill-opacity:1;"/>
<path d="M177.061 16.0403H206.46V51.3195H177.061V16.0403Z" fill="white" style="fill:white;fill-opacity:1;"/>
<path d="M184.893 64.5492C181.487 64.5492 178.536 63.906 176.039 62.6196C173.542 61.3079 171.6 59.5548 170.212 57.3603C168.85 55.1659 168.169 52.757 168.169 50.1337V27.1293C168.169 24.4808 168.85 22.0719 170.212 19.9026C171.6 17.7081 173.542 15.9677 176.039 14.6813C178.536 13.3696 181.487 12.7138 184.893 12.7138H196.546C199.951 12.7138 202.903 13.3696 205.4 14.6813C207.922 15.9677 209.865 17.7081 211.227 19.9026C212.589 22.0719 213.27 24.4808 213.27 27.1293V50.1337C213.27 52.757 212.589 55.1659 211.227 57.3603C209.865 59.5548 207.922 61.3079 205.4 62.6196C202.903 63.906 199.951 64.5492 196.546 64.5492H184.893ZM178.007 47.4095H182.055V20.4702L183.909 20.1296H188.222L189.849 20.4702V36.5127H193.898V20.4702L195.525 20.1296H199.876L201.73 20.4702V47.4095H205.74V19.0702L203.357 16.6487L200.178 16.119H195.222L193.179 16.7244L191.892 19.3351L190.644 16.7244L188.563 16.119H183.606L180.428 16.6487L178.007 19.0702V47.4095Z" fill="#E73879" style="fill:#E73879;fill:color(display-p3 0.9059 0.2196 0.4745);fill-opacity:1;"/>
<path d="M131.492 16.0403H160.892V51.3195H131.492V16.0403Z" fill="white" style="fill:white;fill-opacity:1;"/>
<path d="M140.095 64.5492C136.69 64.5492 133.738 63.906 131.241 62.6196C128.744 61.3079 126.802 59.5548 125.414 57.3603C124.052 55.1659 123.371 52.757 123.371 50.1337V27.1293C123.371 24.4808 124.052 22.0719 125.414 19.9026C126.802 17.7081 128.744 15.9677 131.241 14.6813C133.738 13.3696 136.69 12.7138 140.095 12.7138H151.748C155.154 12.7138 158.105 13.3696 160.602 14.6813C163.124 15.9677 165.067 17.7081 166.429 19.9026C167.791 22.0719 168.472 24.4808 168.472 27.1293V50.1337C168.472 52.757 167.791 55.1659 166.429 57.3603C165.067 59.5548 163.124 61.3079 160.602 62.6196C158.105 63.906 155.154 64.5492 151.748 64.5492H140.095ZM137.787 47.4095H141.722V36.2478H151.9L155.759 35.7938L158.18 33.4101L158.71 30.1562V22.2485L158.18 19.0702L155.759 16.6487L151.9 16.119H137.787V47.4095ZM141.722 32.2372V20.1296H151.673L154.283 20.5458L154.662 22.7782V29.74L154.132 31.8588L151.673 32.2372H141.722Z" fill="#F26B0F" style="fill:#F26B0F;fill:color(display-p3 0.9490 0.4196 0.0588);fill-opacity:1;"/>
<path d="M87.3931 16.0403H116.792V51.3195H87.3931V16.0403Z" fill="white" style="fill:white;fill-opacity:1;"/>
<path d="M95.2969 64.5492C91.8916 64.5492 88.9404 63.906 86.4432 62.6196C83.9461 61.3079 82.0038 59.5548 80.6165 57.3603C79.2544 55.1659 78.5733 52.757 78.5733 50.1337V27.1293C78.5733 24.4808 79.2544 22.0719 80.6165 19.9026C82.0038 17.7081 83.9461 15.9677 86.4432 14.6813C88.9404 13.3696 91.8916 12.7138 95.2969 12.7138H106.95C110.356 12.7138 113.307 13.3696 115.804 14.6813C118.326 15.9677 120.269 17.7081 121.631 19.9026C122.993 22.0719 123.674 24.4808 123.674 27.1293V50.1337C123.674 52.757 122.993 55.1659 121.631 57.3603C120.269 59.5548 118.326 61.3079 115.804 62.6196C113.307 63.906 110.356 64.5492 106.95 64.5492H95.2969ZM97.34 47.4095H106.459L110.885 46.8798L109.939 42.7935L106.383 43.3988H97.567L95.0699 43.0205L94.5402 40.7503V22.5512L94.9185 20.4702L97.567 20.054H106.232L110.129 20.6972L110.885 16.6487L106.459 16.119H97.34L93.4429 16.5731L91.0592 18.9946L90.4917 22.1728V41.3935L91.0592 44.5718L93.5186 46.9554L97.34 47.4095Z" fill="#FCC737" style="fill:#FCC737;fill:color(display-p3 0.9882 0.7804 0.2157);fill-opacity:1;"/>
<path d="M280.301 58.7486C278.873 58.7486 277.645 58.5648 276.618 58.1974C275.59 57.8382 274.734 57.3621 274.049 56.7691C273.373 56.1845 272.834 55.5581 272.433 54.8899L274.789 53.2362C275.056 53.587 275.394 53.9879 275.803 54.4389C276.213 54.8983 276.772 55.295 277.482 55.6291C278.2 55.9715 279.14 56.1427 280.301 56.1427C281.854 56.1427 283.136 55.7669 284.147 55.0152C285.158 54.2635 285.663 53.0859 285.663 51.4823V47.5735H285.412C285.195 47.9243 284.886 48.3586 284.485 48.8764C284.093 49.3859 283.525 49.8411 282.781 50.242C282.047 50.6345 281.053 50.8308 279.8 50.8308C278.246 50.8308 276.852 50.4633 275.615 49.7283C274.388 48.9934 273.415 47.9243 272.696 46.5211C271.986 45.118 271.631 43.4142 271.631 41.4097C271.631 39.4386 271.978 37.7222 272.671 36.2606C273.365 34.7906 274.329 33.6547 275.565 32.8529C276.801 32.0428 278.23 31.6377 279.85 31.6377C281.103 31.6377 282.097 31.8465 282.832 32.2641C283.575 32.6734 284.143 33.1411 284.535 33.6673C284.936 34.1851 285.245 34.6111 285.463 34.9451H285.763V31.8883H288.62V51.6827C288.62 53.3364 288.244 54.6811 287.492 55.7168C286.749 56.7608 285.746 57.525 284.485 58.0094C283.233 58.5022 281.838 58.7486 280.301 58.7486ZM280.201 48.1748C281.387 48.1748 282.389 47.9034 283.207 47.3605C284.026 46.8176 284.648 46.0367 285.074 45.0178C285.5 43.9988 285.713 42.7794 285.713 41.3595C285.713 39.9731 285.504 38.7495 285.087 37.6888C284.669 36.6281 284.051 35.7971 283.233 35.1957C282.414 34.5944 281.403 34.2937 280.201 34.2937C278.948 34.2937 277.904 34.6111 277.069 35.2458C276.242 35.8806 275.62 36.7325 275.202 37.8016C274.793 38.8706 274.588 40.0566 274.588 41.3595C274.588 42.6959 274.797 43.8777 275.215 44.905C275.64 45.924 276.267 46.7258 277.094 47.3104C277.929 47.8867 278.965 48.1748 280.201 48.1748ZM299.694 51.5825C298.475 51.5825 297.368 51.3528 296.375 50.8935C295.381 50.4257 294.591 49.7534 294.007 48.8764C293.422 47.9911 293.13 46.922 293.13 45.6692C293.13 44.5667 293.347 43.6731 293.781 42.9882C294.216 42.295 294.796 41.7521 295.523 41.3595C296.249 40.967 297.051 40.6747 297.928 40.4826C298.813 40.2821 299.703 40.1234 300.597 40.0065C301.766 39.8562 302.714 39.7434 303.44 39.6682C304.175 39.5847 304.71 39.4469 305.044 39.2548C305.386 39.0627 305.558 38.7286 305.558 38.2526V38.1523C305.558 36.9162 305.219 35.9557 304.543 35.2709C303.875 34.586 302.86 34.2436 301.499 34.2436C300.087 34.2436 298.98 34.5526 298.179 35.1706C297.377 35.7887 296.813 36.4485 296.487 37.1501L293.681 36.1478C294.182 34.9785 294.85 34.0682 295.685 33.4167C296.529 32.7569 297.448 32.2975 298.442 32.0386C299.444 31.7713 300.429 31.6377 301.398 31.6377C302.016 31.6377 302.726 31.7129 303.528 31.8632C304.338 32.0052 305.119 32.3017 305.871 32.7527C306.631 33.2037 307.261 33.8844 307.763 34.7948C308.264 35.7052 308.514 36.9246 308.514 38.453V51.1315H305.558V48.5256H305.407C305.207 48.9432 304.873 49.3901 304.405 49.8661C303.937 50.3422 303.315 50.7473 302.538 51.0814C301.762 51.4155 300.814 51.5825 299.694 51.5825ZM300.145 48.9265C301.315 48.9265 302.3 48.6969 303.102 48.2375C303.912 47.7781 304.522 47.1851 304.931 46.4585C305.349 45.7319 305.558 44.9676 305.558 44.1658V41.4598C305.432 41.6101 305.157 41.7479 304.731 41.8732C304.313 41.9901 303.829 42.0945 303.278 42.1864C302.735 42.2699 302.204 42.3451 301.686 42.4119C301.177 42.4704 300.764 42.5205 300.446 42.5622C299.678 42.6625 298.959 42.8253 298.291 43.0508C297.632 43.268 297.097 43.5979 296.688 44.0406C296.287 44.4749 296.086 45.0679 296.086 45.8196C296.086 46.8469 296.466 47.6236 297.226 48.1498C297.995 48.6676 298.968 48.9265 300.145 48.9265ZM313.911 51.1315V31.8883H316.767V34.895H317.018C317.419 33.8677 318.066 33.0701 318.96 32.5022C319.853 31.9259 320.927 31.6377 322.179 31.6377C323.449 31.6377 324.505 31.9259 325.349 32.5022C326.201 33.0701 326.865 33.8677 327.341 34.895H327.541C328.034 33.9011 328.773 33.1119 329.759 32.5272C330.744 31.9342 331.926 31.6377 333.304 31.6377C335.025 31.6377 336.432 32.1764 337.526 33.2538C338.62 34.3229 339.167 35.9892 339.167 38.2526V51.1315H336.211V38.2526C336.211 36.8327 335.822 35.8179 335.046 35.2082C334.269 34.5985 333.354 34.2937 332.302 34.2937C330.949 34.2937 329.901 34.7029 329.158 35.5214C328.414 36.3316 328.043 37.3589 328.043 38.6034V51.1315H325.036V37.9519C325.036 36.8578 324.681 35.9766 323.971 35.3085C323.261 34.6319 322.346 34.2937 321.227 34.2937C320.459 34.2937 319.741 34.4983 319.072 34.9076C318.413 35.3168 317.878 35.8848 317.469 36.6114C317.068 37.3297 316.867 38.1607 316.867 39.1045V51.1315H313.911ZM352.641 51.5324C350.787 51.5324 349.188 51.1231 347.843 50.3046C346.507 49.4778 345.475 48.3252 344.749 46.8469C344.03 45.3602 343.671 43.6313 343.671 41.6602C343.671 39.6891 344.03 37.9519 344.749 36.4485C345.475 34.9368 346.486 33.7591 347.781 32.9156C349.084 32.0637 350.604 31.6377 352.341 31.6377C353.343 31.6377 354.333 31.8048 355.31 32.1388C356.287 32.4729 357.177 33.0158 357.978 33.7675C358.78 34.5108 359.419 35.4964 359.895 36.7241C360.371 37.9519 360.609 39.4636 360.609 41.2593V42.5121H345.776V39.9564H357.603C357.603 38.8706 357.385 37.9018 356.951 37.0499C356.525 36.198 355.916 35.5256 355.122 35.0328C354.337 34.5401 353.41 34.2937 352.341 34.2937C351.163 34.2937 350.144 34.586 349.284 35.1706C348.432 35.7469 347.776 36.4986 347.317 37.4257C346.858 38.3528 346.628 39.3467 346.628 40.4074V42.1112C346.628 43.5645 346.879 44.7964 347.38 45.807C347.889 46.8093 348.595 47.5735 349.497 48.0997C350.399 48.6175 351.447 48.8764 352.641 48.8764C353.418 48.8764 354.12 48.7678 354.746 48.5507C355.381 48.3252 355.928 47.9911 356.387 47.5484C356.847 47.0974 357.202 46.5378 357.452 45.8697L360.309 46.6715C360.008 47.6403 359.503 48.4922 358.793 49.2272C358.083 49.9538 357.206 50.5218 356.162 50.931C355.118 51.3319 353.944 51.5324 352.641 51.5324Z" fill="black" style="fill:black;fill-opacity:1;"/>
</svg>
