<svg width="256" height="52" viewBox="0 0 256 52" fill="none" xmlns="http://www.w3.org/2000/svg">
<path d="M15.5341 21.7776V23.4821H8.75V21.7776H15.5341ZM10.7273 18.6412H12.7386V31.1185C12.7386 31.6867 12.821 32.1128 12.9858 32.3969C13.1563 32.6753 13.3722 32.8628 13.6335 32.9594C13.9006 33.0503 14.1818 33.0958 14.4773 33.0958C14.6989 33.0958 14.8807 33.0844 15.0227 33.0617C15.1648 33.0333 15.2784 33.0106 15.3636 32.9935L15.7727 34.8003C15.6364 34.8515 15.446 34.9026 15.2017 34.9537C14.9574 35.0106 14.6477 35.039 14.2727 35.039C13.7045 35.039 13.1477 34.9168 12.6023 34.6725C12.0625 34.4282 11.6136 34.056 11.2557 33.556C10.9034 33.056 10.7273 32.4253 10.7273 31.664V18.6412ZM20.8523 26.9935V34.8685H18.8409V17.414H20.8523V23.8231H21.0227C21.3295 23.1469 21.7898 22.61 22.4034 22.2123C23.0227 21.8088 23.8466 21.6071 24.875 21.6071C25.767 21.6071 26.5483 21.7861 27.2188 22.1441C27.8892 22.4963 28.4091 23.039 28.7784 23.7719C29.1534 24.4992 29.3409 25.4253 29.3409 26.5503V34.8685H27.3295V26.6867C27.3295 25.6469 27.0597 24.8429 26.5199 24.2748C25.9858 23.7009 25.2443 23.414 24.2955 23.414C23.6364 23.414 23.0455 23.5532 22.5227 23.8316C22.0057 24.11 21.5966 24.5162 21.2955 25.0503C21 25.5844 20.8523 26.2321 20.8523 26.9935ZM38.5092 35.1412C37.2479 35.1412 36.1598 34.8628 35.245 34.306C34.3359 33.7435 33.6342 32.9594 33.1399 31.9537C32.6513 30.9424 32.407 29.7662 32.407 28.4253C32.407 27.0844 32.6513 25.9026 33.1399 24.8799C33.6342 23.8515 34.3217 23.0503 35.2024 22.4765C36.0888 21.8969 37.1229 21.6071 38.3047 21.6071C38.9865 21.6071 39.6598 21.7208 40.3246 21.9481C40.9893 22.1753 41.5945 22.5446 42.1399 23.056C42.6854 23.5617 43.12 24.2321 43.4439 25.0674C43.7678 25.9026 43.9297 26.931 43.9297 28.1526V29.0049H33.8388V27.2662H41.8842C41.8842 26.5276 41.7365 25.8685 41.4411 25.289C41.1513 24.7094 40.7365 24.252 40.1967 23.9168C39.6626 23.5816 39.032 23.414 38.3047 23.414C37.5036 23.414 36.8104 23.6128 36.2251 24.0106C35.6456 24.4026 35.1996 24.914 34.8871 25.5446C34.5746 26.1753 34.4183 26.8515 34.4183 27.5731V28.7321C34.4183 29.7208 34.5888 30.5588 34.9297 31.2463C35.2763 31.9282 35.7564 32.4481 36.37 32.806C36.9837 33.1583 37.6967 33.3344 38.5092 33.3344C39.0376 33.3344 39.5149 33.2606 39.9411 33.1128C40.3729 32.9594 40.745 32.7321 41.0575 32.431C41.37 32.1242 41.6115 31.7435 41.782 31.289L43.7251 31.8344C43.5206 32.4935 43.1768 33.0731 42.6939 33.5731C42.2109 34.0674 41.6143 34.4537 40.9041 34.7321C40.1939 35.0049 39.3956 35.1412 38.5092 35.1412Z" fill="black" style="fill:black;fill-opacity:1;"/>
<path d="M151 11H171V35H151V11Z" fill="white" style="fill:white;fill-opacity:1;"/>
<path d="M156.803 44C154.487 44 152.479 43.5624 150.78 42.6873C149.081 41.795 147.76 40.6024 146.816 39.1095C145.89 37.6166 145.426 35.9779 145.426 34.1933V18.5437C145.426 16.742 145.89 15.1032 146.816 13.6275C147.76 12.1346 149.081 10.9506 150.78 10.0755C152.479 9.18317 154.487 8.73702 156.803 8.73702H164.731C167.047 8.73702 169.055 9.18317 170.754 10.0755C172.47 10.9506 173.791 12.1346 174.718 13.6275C175.644 15.1032 176.108 16.742 176.108 18.5437V34.1933C176.108 35.9779 175.644 37.6166 174.718 39.1095C173.791 40.6024 172.47 41.795 170.754 42.6873C169.055 43.5624 167.047 44 164.731 44H156.803ZM155.748 32.34H158.502V22.6106H167.099V19.9079H158.502V13.7819H168.566V11.0536H155.748V32.34Z" fill="#7E1891" style="fill:#7E1891;fill:color(display-p3 0.4941 0.0941 0.5686);fill-opacity:1;"/>
<path d="M121 11H141V35H121V11Z" fill="white" style="fill:white;fill-opacity:1;"/>
<path d="M126.328 44C124.011 44 122.003 43.5624 120.305 42.6873C118.606 41.795 117.285 40.6024 116.341 39.1095C115.414 37.6166 114.951 35.9779 114.951 34.1933V18.5437C114.951 16.742 115.414 15.1032 116.341 13.6275C117.285 12.1346 118.606 10.9506 120.305 10.0755C122.003 9.18317 124.011 8.73702 126.328 8.73702H134.255C136.572 8.73702 138.58 9.18317 140.278 10.0755C141.994 10.9506 143.316 12.1346 144.242 13.6275C145.169 15.1032 145.632 16.742 145.632 18.5437V34.1933C145.632 35.9779 145.169 37.6166 144.242 39.1095C143.316 40.6024 141.994 41.795 140.278 42.6873C138.58 43.5624 136.572 44 134.255 44H126.328ZM121.643 32.34H124.397V14.0136L125.658 13.7819H128.593L129.7 14.0136V24.9271H132.454V14.0136L133.56 13.7819H136.521L137.782 14.0136V32.34H140.51V13.0612L138.889 11.4139L136.726 11.0536H133.355L131.965 11.4654L131.089 13.2414L130.24 11.4654L128.824 11.0536H125.453L123.29 11.4139L121.643 13.0612V32.34Z" fill="#E73879" style="fill:#E73879;fill:color(display-p3 0.9059 0.2196 0.4745);fill-opacity:1;"/>
<path d="M90 11H110V35H90V11Z" fill="white" style="fill:white;fill-opacity:1;"/>
<path d="M95.8523 44C93.5357 44 91.528 43.5624 89.8292 42.6873C88.1304 41.795 86.8092 40.6024 85.8654 39.1095C84.9388 37.6166 84.4754 35.9779 84.4754 34.1933V18.5437C84.4754 16.742 84.9388 15.1032 85.8654 13.6275C86.8092 12.1346 88.1304 10.9506 89.8292 10.0755C91.528 9.18317 93.5357 8.73702 95.8523 8.73702H103.78C106.097 8.73702 108.104 9.18317 109.803 10.0755C111.519 10.9506 112.84 12.1346 113.767 13.6275C114.694 15.1032 115.157 16.742 115.157 18.5437V34.1933C115.157 35.9779 114.694 37.6166 113.767 39.1095C112.84 40.6024 111.519 41.795 109.803 42.6873C108.104 43.5624 106.097 44 103.78 44H95.8523ZM94.2822 32.34H96.9591V24.7469H103.883L106.508 24.4381L108.156 22.8165L108.516 20.6029V15.2234L108.156 13.0612L106.508 11.4139L103.883 11.0536H94.2822V32.34ZM96.9591 22.0186V13.7819H103.729L105.505 14.0651L105.762 15.5837V20.3198L105.402 21.7612L103.729 22.0186H96.9591Z" fill="#F26B0F" style="fill:#F26B0F;fill:color(display-p3 0.9490 0.4196 0.0588);fill-opacity:1;"/>
<path d="M60 11H80V35H60V11Z" fill="white" style="fill:white;fill-opacity:1;"/>
<path d="M65.3768 44C63.0603 44 61.0526 43.5624 59.3538 42.6873C57.655 41.795 56.3337 40.6024 55.3899 39.1095C54.4633 37.6166 54 35.9779 54 34.1933V18.5437C54 16.742 54.4633 15.1032 55.3899 13.6275C56.3337 12.1346 57.655 10.9506 59.3538 10.0755C61.0526 9.18317 63.0603 8.73702 65.3768 8.73702H73.3045C75.6211 8.73702 77.6288 9.18317 79.3276 10.0755C81.0435 10.9506 82.3648 12.1346 83.2914 13.6275C84.2181 15.1032 84.6814 16.742 84.6814 18.5437V34.1933C84.6814 35.9779 84.2181 37.6166 83.2914 39.1095C82.3648 40.6024 81.0435 41.795 79.3276 42.6873C77.6288 43.5624 75.6211 44 73.3045 44H65.3768ZM66.7667 32.34H72.9699L75.9814 31.9797L75.338 29.1998L72.9185 29.6117H66.9212L65.2224 29.3543L64.862 27.8099V15.4293L65.1194 14.0136L66.9212 13.7305H72.8155L75.4667 14.168L75.9814 11.4139L72.9699 11.0536H66.7667L64.1156 11.3624L62.494 13.0098L62.1079 15.1719V28.2475L62.494 30.4096L64.1671 32.0312L66.7667 32.34Z" fill="#FCC737" style="fill:#FCC737;fill:color(display-p3 0.9882 0.7804 0.2157);fill-opacity:1;"/>
<path d="M191.233 40.0503C190.261 40.0503 189.426 39.9253 188.727 39.6753C188.028 39.431 187.446 39.1071 186.98 38.7037C186.52 38.306 186.153 37.8799 185.88 37.4253L187.483 36.3003C187.665 36.539 187.895 36.8117 188.173 37.1185C188.451 37.431 188.832 37.7009 189.315 37.9282C189.804 38.1611 190.443 38.2776 191.233 38.2776C192.29 38.2776 193.162 38.0219 193.849 37.5106C194.537 36.9992 194.88 36.1981 194.88 35.1071V32.4481H194.71C194.562 32.6867 194.352 32.9821 194.079 33.3344C193.812 33.681 193.426 33.9907 192.92 34.2634C192.42 34.5304 191.744 34.664 190.892 34.664C189.835 34.664 188.886 34.414 188.045 33.914C187.21 33.414 186.548 32.6867 186.059 31.7321C185.576 30.7776 185.335 29.6185 185.335 28.2549C185.335 26.914 185.571 25.7463 186.042 24.752C186.514 23.752 187.17 22.9793 188.011 22.4338C188.852 21.8827 189.824 21.6071 190.926 21.6071C191.778 21.6071 192.454 21.7492 192.954 22.0333C193.46 22.3117 193.846 22.6299 194.113 22.9878C194.386 23.3401 194.596 23.6299 194.744 23.8571H194.949V21.7776H196.892V35.2435C196.892 36.3685 196.636 37.2833 196.125 37.9878C195.619 38.6981 194.937 39.2179 194.079 39.5475C193.227 39.8827 192.278 40.0503 191.233 40.0503ZM191.165 32.8571C191.971 32.8571 192.653 32.6725 193.21 32.3032C193.767 31.9338 194.19 31.4026 194.48 30.7094C194.77 30.0162 194.915 29.1867 194.915 28.2208C194.915 27.2776 194.772 26.4452 194.488 25.7236C194.204 25.002 193.784 24.4367 193.227 24.0276C192.67 23.6185 191.983 23.414 191.165 23.414C190.312 23.414 189.602 23.6299 189.034 24.0617C188.471 24.4935 188.048 25.0731 187.764 25.8003C187.486 26.5276 187.346 27.3344 187.346 28.2208C187.346 29.1299 187.488 29.9338 187.772 30.6327C188.062 31.3259 188.488 31.8713 189.051 32.2691C189.619 32.6611 190.324 32.8571 191.165 32.8571ZM204.426 35.1753C203.596 35.1753 202.843 35.0191 202.167 34.7066C201.491 34.3884 200.954 33.931 200.557 33.3344C200.159 32.7321 199.96 32.0049 199.96 31.1526C199.96 30.4026 200.108 29.7946 200.403 29.3287C200.699 28.8571 201.093 28.4878 201.588 28.2208C202.082 27.9537 202.628 27.7549 203.224 27.6242C203.826 27.4878 204.432 27.3799 205.04 27.3003C205.835 27.1981 206.48 27.1213 206.974 27.0702C207.474 27.0134 207.838 26.9196 208.065 26.789C208.298 26.6583 208.415 26.431 208.415 26.1071V26.039C208.415 25.1981 208.184 24.5446 207.724 24.0787C207.27 23.6128 206.579 23.3799 205.653 23.3799C204.693 23.3799 203.94 23.5901 203.395 24.0106C202.849 24.431 202.466 24.8799 202.244 25.3571L200.335 24.6753C200.676 23.8799 201.13 23.2606 201.699 22.8174C202.272 22.3685 202.897 22.056 203.574 21.8799C204.255 21.6981 204.926 21.6071 205.585 21.6071C206.005 21.6071 206.488 21.6583 207.034 21.7606C207.585 21.8571 208.116 22.0588 208.628 22.3657C209.145 22.6725 209.574 23.1356 209.915 23.7549C210.255 24.3742 210.426 25.2037 210.426 26.2435V34.8685H208.415V33.0958H208.312C208.176 33.3799 207.949 33.6838 207.63 34.0077C207.312 34.3316 206.889 34.6071 206.361 34.8344C205.832 35.0617 205.187 35.1753 204.426 35.1753ZM204.733 33.3685C205.528 33.3685 206.199 33.2123 206.744 32.8998C207.295 32.5873 207.71 32.1838 207.988 31.6895C208.272 31.1952 208.415 30.6753 208.415 30.1299V28.289C208.329 28.3912 208.142 28.485 207.852 28.5702C207.568 28.6498 207.238 28.7208 206.863 28.7833C206.494 28.8401 206.133 28.8912 205.781 28.9367C205.434 28.9765 205.153 29.0106 204.937 29.039C204.415 29.1071 203.926 29.2179 203.471 29.3713C203.022 29.5191 202.659 29.7435 202.38 30.0446C202.108 30.3401 201.971 30.7435 201.971 31.2549C201.971 31.9537 202.23 32.4821 202.747 32.8401C203.27 33.1924 203.932 33.3685 204.733 33.3685ZM214.097 34.8685V21.7776H216.04V23.8231H216.211C216.483 23.1242 216.924 22.5816 217.532 22.1952C218.14 21.8032 218.87 21.6071 219.722 21.6071C220.586 21.6071 221.304 21.8032 221.878 22.1952C222.458 22.5816 222.91 23.1242 223.233 23.8231H223.37C223.705 23.1469 224.208 22.61 224.878 22.2123C225.549 21.8088 226.353 21.6071 227.29 21.6071C228.461 21.6071 229.418 21.9736 230.162 22.7066C230.907 23.4338 231.279 24.5674 231.279 26.1071V34.8685H229.267V26.1071C229.267 25.1412 229.003 24.4509 228.475 24.0361C227.946 23.6213 227.324 23.414 226.608 23.414C225.688 23.414 224.975 23.6924 224.469 24.2492C223.964 24.8003 223.711 25.4992 223.711 26.3458V34.8685H221.665V25.9026C221.665 25.1583 221.424 24.5588 220.941 24.1043C220.458 23.6441 219.836 23.414 219.074 23.414C218.552 23.414 218.063 23.5532 217.608 23.8316C217.16 24.11 216.796 24.4963 216.517 24.9907C216.245 25.4793 216.108 26.0446 216.108 26.6867V34.8685H214.097ZM240.445 35.1412C239.184 35.1412 238.096 34.8628 237.181 34.306C236.272 33.7435 235.57 32.9594 235.076 31.9537C234.587 30.9424 234.343 29.7662 234.343 28.4253C234.343 27.0844 234.587 25.9026 235.076 24.8799C235.57 23.8515 236.258 23.0503 237.138 22.4765C238.025 21.8969 239.059 21.6071 240.241 21.6071C240.922 21.6071 241.596 21.7208 242.26 21.9481C242.925 22.1753 243.53 22.5446 244.076 23.056C244.621 23.5617 245.056 24.2321 245.38 25.0674C245.704 25.9026 245.866 26.931 245.866 28.1526V29.0049H235.775V27.2662H243.82C243.82 26.5276 243.672 25.8685 243.377 25.289C243.087 24.7094 242.672 24.252 242.133 23.9168C241.598 23.5816 240.968 23.414 240.241 23.414C239.439 23.414 238.746 23.6128 238.161 24.0106C237.581 24.4026 237.135 24.914 236.823 25.5446C236.51 26.1753 236.354 26.8515 236.354 27.5731V28.7321C236.354 29.7208 236.525 30.5588 236.866 31.2463C237.212 31.9282 237.692 32.4481 238.306 32.806C238.919 33.1583 239.633 33.3344 240.445 33.3344C240.973 33.3344 241.451 33.2606 241.877 33.1128C242.309 32.9594 242.681 32.7321 242.993 32.431C243.306 32.1242 243.547 31.7435 243.718 31.289L245.661 31.8344C245.456 32.4935 245.113 33.0731 244.63 33.5731C244.147 34.0674 243.55 34.4537 242.84 34.7321C242.13 35.0049 241.331 35.1412 240.445 35.1412Z" fill="black" style="fill:black;fill-opacity:1;"/>
</svg>
